<svg width="47" height="47" viewBox="0 0 47 47" fill="none" xmlns="http://www.w3.org/2000/svg">
<path d="M13.2827 29.5283V47H16.3479V40.8695C19.3518 40.8695 21.8809 38.8433 22.6474 36.0836C22.6474 36.0836 15.9392 31.3674 13.2827 29.5283Z" fill="#F72349"/>
<path d="M35.761 47.0001H38.8262V34.7393C37.9066 34.7393 37.0892 34.8414 35.761 34.8414V47.0001Z" fill="#F72349"/>
<path d="M36.7827 19.4128C36.7827 17.7199 35.4104 16.3477 33.7175 16.3477V20.4346L35.2501 21.6607L36.7827 20.4345V19.4128Z" fill="#FB5858"/>
<path d="M14.9172 30.2437C14.9172 30.2437 16.7455 34.7504 16.7258 34.9566L22.6471 36.0839L29.6303 37.4132L32.3889 33.1045L14.9172 30.2437Z" fill="#FBB071"/>
<path d="M29.6304 34.2927V47H32.6956V37.9218C33.7759 37.9983 34.8066 37.9004 35.7608 37.647C36.9079 37.3424 37.945 36.8138 38.8259 36.0969C40.7182 34.5571 41.8911 32.1486 41.8911 29.2218L38.0085 27.0762C36.476 28.3022 29.6304 34.2927 29.6304 34.2927Z" fill="#FF835D"/>
<path d="M38.8262 29.2216H41.8914V24.1811L36.5784 22.7847L38.8262 29.2216Z" fill="#FAE8AC"/>
<path d="M45.9782 20.435H41.8912V19.4133C41.8912 17.7204 40.519 16.3481 38.826 16.3481V20.4351H33.7174V26.5656H29.6304L26.5652 30.4482L29.6304 34.2931L32.0447 34.7529C32.5086 34.8407 32.9643 34.8837 33.4047 34.8837C34.7595 34.8837 35.9795 34.476 36.9267 33.6903C38.1517 32.6747 38.826 31.088 38.826 29.2223V24.6926L41.8912 24.1817L45.9782 23.5002V20.435Z" fill="#F72349"/>
<path d="M10.2174 26.5652V9.87584L6.1305 7.25439L2.04269 9.87584C1.38102 11.7708 1.02173 13.809 1.02173 15.9297C1.02173 22.7379 4.72023 28.6807 10.2174 31.8607V35.7609H7.1522V47.0001H10.2174V40.8696C11.3253 40.8696 12.3682 40.5931 13.2826 40.1068C14.6874 39.3599 15.7874 38.116 16.3478 36.609C16.5421 36.0864 16.6713 35.5323 16.7259 34.9565C16.7455 34.7504 16.7564 34.5417 16.7564 34.3304V31.842L29.6303 34.2926V26.5652H10.2174Z" fill="#FB5858"/>
<path d="M10.2174 0C6.43374 2.1888 3.50184 5.68718 2.04272 9.87578H10.2174V0Z" fill="#FAE8AC"/>
</svg>
